{"title":"iron.man.3.2013.1080p.bluray.ac3.x264-ZoyToy","uid":8833312,"size":23905098147,"categoryP":"video","categoryS":"hd___movies","magnet":"?xt=urn:btih:eb4a3235b1ddf26f43fd5d5b738d3d71eecab8c2&amp;dn=iron.man.3.2013.1080p.bluray.ac3.x264-ZoyToy&amp;tr=udp%3A%2F%2Ftracker.openbittorrent.com%3A80&amp;tr=udp%3A%2F%2Fopen.demonii.com%3A1337&amp;tr=udp%3A%2F%2Ftracker.coppersurfer.tk%3A6969&amp;tr=udp%3A%2F%2Fexodus.desync.com%3A6969","seeders":1,"leechers":0,"uploader":"ZoyToy","files":-1,"time":1377045628,"description":"General\nUnique ID                                : 202944915393449407395043911787735116577 (0x98ADC4DAAD2BDB35A15D0C5C4E136B21)\nComplete name                            : iron.man.3.2013.1080p.bluray.ac3.x264-ZoyToy.mkv\nFormat                                   : Matroska\nFormat version                           : Version 4 / Version 2\nFile size                                : 22.3 GiB\nDuration                                 : 2h 10mn\nOverall bit rate mode                    : Variable\nOverall bit rate                         : 24.4 Mbps\nMovie name                               : MARVEL'S IRON MAN 3 - BLU-RAYâ„¢\nEncoded date                             : UTC 2013-08-20 19:33:57\nWriting application                      : mkvmerge v6.3.0 ('You can't stop me!') built on Jun 28 2013 20:09:41\nWriting library                          : libebml v1.3.0 + libmatroska v1.4.0\n\nVideo\nID                                       : 1\nFormat                                   : AVC\nFormat/Info                              : Advanced Video Codec\nFormat profile                           : &lt;a class=&quot;__cf_email__&quot; href=&quot;/cdn-cgi/l/email-protection&quot; data-cfemail=&quot;b8f0d1dfd0f8f48c9689&quot;&gt;[email&amp;#160;protected]&lt;/a&gt;&lt;script cf-hash='f9e31' type=&quot;text/javascript&quot;&gt;\n/* &lt;![CDATA[ */!function(){try{var t=&quot;currentScript&quot;in document?document.currentScript:function(){for(var t=document.getElementsByTagName(&quot;script&quot;),e=t.length;e--;)if(t[e].getAttribute(&quot;cf-hash&quot;))return t[e]}();if(t&amp;&amp;t.previousSibling){var e,r,n,i,c=t.previousSibling,a=c.getAttribute(&quot;data-cfemail&quot;);if(a){for(e=&quot;&quot;,r=parseInt(a.substr(0,2),16),n=2;a.length-n;n+=2)i=parseInt(a.substr(n,2),16)^r,e+=String.fromCharCode(i);e=document.createTextNode(e),c.parentNode.replaceChild(e,c)}}}catch(u){}}();/* ]]&gt; */&lt;/script&gt;\nFormat settings, CABAC                   : Yes\nFormat settings, ReFrames                : 4 frames\nFormat settings, GOP                     : M=3, N=12\nCodec ID                                 : V_MPEG4/ISO/AVC\nDuration                                 : 2h 10mn\nBit rate mode                            : Variable\nBit rate                                 : 23.3 Mbps\nMaximum bit rate                         : 30.0 Mbps\nWidth                                    : 1 920 pixels\nHeight                                   : 1 080 pixels\nDisplay aspect ratio                     : 16:9\nFrame rate mode                          : Constant\nFrame rate                               : 23.976 fps\nColor space                              : YUV\nChroma subsampling                       : 4:2:0\nBit depth                                : 8 bits\nScan type                                : Progressive\nBits/(Pixel*Frame)                       : 0.468\nStream size                              : 21.2 GiB (95%)\nLanguage                                 : English\nDefault                                  : No\nForced                                   : No\n\nAudio\nID                                       : 2\nFormat                                   : AC-3\nFormat/Info                              : Audio Coding 3\nMode extension                           : CM (complete main)\nFormat settings, Endianness              : Big\nCodec ID                                 : A_AC3\nDuration                                 : 2h 10mn\nBit rate mode                            : Constant\nBit rate                                 : 640 Kbps\nChannel(s)                               : 6 channels\nChannel positions                        : Front: L C R, Side: L R, LFE\nSampling rate                            : 48.0 KHz\nBit depth                                : 16 bits\nCompression mode                         : Lossy\nStream size                              : 598 MiB (3%)\nDefault                                  : Yes\nForced                                   : No\n\n\nScreenshots:\n &lt;a href=&quot;\nhttp://imageshack.us/a/img545/6374/gzks.jpg&quot; rel=&quot;nofollow&quot; target=&quot;_NEW&quot;&gt;\nhttp://imageshack.us/a/img545/6374/gzks.jpg&lt;/a&gt; &lt;a href=&quot;\nhttp://imageshack.us/a/img17/9959/cexj.jpg&quot; rel=&quot;nofollow&quot; target=&quot;_NEW&quot;&gt;\nhttp://imageshack.us/a/img17/9959/cexj.jpg&lt;/a&gt; &lt;a href=&quot;\nhttp://imageshack.us/a/img39/8931/cuyg.jpg&quot; rel=&quot;nofollow&quot; target=&quot;_NEW&quot;&gt;\nhttp://imageshack.us/a/img39/8931/cuyg.jpg&lt;/a&gt; &lt;a href=&quot;\nhttp://imageshack.us/a/img10/7539/fpqr.jpg&quot; rel=&quot;nofollow&quot; target=&quot;_NEW&quot;&gt;\nhttp://imageshack.us/a/img10/7539/fpqr.jpg&lt;/a&gt; &lt;a href=&quot;\nhttp://imageshack.us/a/img18/4429/a43d.jpg&quot; rel=&quot;nofollow&quot; target=&quot;_NEW&quot;&gt;\nhttp://imageshack.us/a/img18/4429/a43d.jpg&lt;/a&gt;\n","torrent":{"xt":"urn:btih:eb4a3235b1ddf26f43fd5d5b738d3d71eecab8c2","amp;dn":"iron.man.3.2013.1080p.bluray.ac3.x264-ZoyToy","amp;tr":["udp%3A%2F%2Ftracker.openbittorrent.com%3A80","udp%3A%2F%2Fopen.demonii.com%3A1337","udp%3A%2F%2Ftracker.coppersurfer.tk%3A6969","udp%3A%2F%2Fexodus.desync.com%3A6969"],"infoHash":"eb4a3235b1ddf26f43fd5d5b738d3d71eecab8c2","infoHashBuffer":{"type":"Buffer","data":[235,74,50,53,177,221,242,111,67,253,93,91,115,141,61,113,238,202,184,194]},"announce":[],"urlList":[]}}